<?xml version="1.0" encoding="UTF-8"?>
<svg width="500" height="500" viewBox="0 0 500 500" fill="none" xmlns="http://www.w3.org/2000/svg">
  <path d="M250 50C180 50 120 150 120 250C120 350 180 450 250 450C320 450 380 350 380 250C380 150 320 50 250 50ZM250 400C200 400 170 330 170 250C170 170 200 100 250 100C300 100 330 170 330 250C330 330 300 400 250 400Z" fill="#4A5568"/>
  <circle cx="220" cy="200" r="20" fill="#4A5568"/>
  <circle cx="280" cy="200" r="20" fill="#4A5568"/>
  <path d="M250 280C230 280 215 295 215 315C215 335 230 350 250 350C270 350 285 335 285 315C285 295 270 280 250 280Z" fill="#4A5568"/>
</svg>